#!OML:ASF F:\VICON\USERDATA\INSTALL\Justin_Nancy\Justin_Nancy.ASF
:FULLY-SPECIFIED
:DEGREES
63
root 12.3462 17.2765 -17.2052 2.22525 3.68118 5.32892
lowerback 6.10861 -1.84348 -7.20165
upperback -0.150493 -2.92637 1.36316
thorax -3.15538 -1.33103 5.71794
lowerneck -16.9624 -3.88318 -9.51553
upperneck 23.8954 -4.12399 5.12104
head 10.8241 -2.13944 2.85409
rclavicle 2.67862e-014 -7.15625e-015
rhumerus -37.6388 -20.6527 -74.1473
rradius 23.4821
rwrist 15.1063
rhand -13.6713 12.0102
rfingers 7.12502
rthumb 12.446 -17.5992
lclavicle 2.67862e-014 -7.15625e-015
lhumerus -20.223 5.86459 85.7252
lradius 32.572
lwrist -7.57528
lhand -15.9308 24.7384
lfingers 7.12502
lthumb 10.2669 54.4678
rfemur -29.6171 -0.571446 17.4373
rtibia 17.9177
rfoot -3.59988 -7.11782
rtoes -6.26034
lfemur 9.20644 1.11305 -29.9769
ltibia 17.3808
lfoot -15.2951 -7.67781
ltoes -2.50164
64
root 12.3415 17.2639 -17.036 2.16257 3.79814 5.58969
lowerback 5.90913 -1.95883 -7.48354
upperback -0.0406597 -3.08157 1.34118
thorax -2.89201 -1.41906 5.85142
lowerneck -17.0856 -3.7305 -9.6343
upperneck 23.976 -3.89605 5.24434
head 10.8633 -2.03108 2.95347
rclavicle 5.07895e-014 7.95139e-016
rhumerus -37.3167 -20.6404 -74.2293
rradius 23.2314
rwrist 15.3914
rhand -13.7595 11.5569
rfingers 7.12502
rthumb 12.361 -18.0577
lclavicle 5.07895e-014 7.95139e-016
lhumerus -20.1993 6.36101 85.6579
lradius 32.4068
lwrist -7.66717
lhand -15.4299 26.8804
lfingers 7.12502
lthumb 10.7501 56.5853
rfemur -29.5318 -0.453296 17.2949
rtibia 19.2231
rfoot -3.9536 -7.19826
rtoes -4.85092
lfemur 9.76873 0.878749 -30.1925
ltibia 17.5433
lfoot -14.9518 -7.90382
ltoes -4.1638
65
root 12.3356 17.2583 -16.8642 2.02651 4.15584 5.50431
lowerback 5.87331 -2.10421 -7.35452
upperback -0.0334898 -3.2618 1.39514
thorax -2.84021 -1.51306 5.84479
lowerneck -16.9696 -3.67911 -9.92296
upperneck 24.1657 -3.81178 5.44426
head 10.9148 -1.99967 3.09203
rclavicle 1.29707e-014 1.19271e-014
rhumerus -37.3416 -20.6358 -74.1507
rradius 23.0787
rwrist 15.5179
rhand -13.866 11.6111
rfingers 7.12502
rthumb 12.2583 -18.0096
lclavicle 1.29707e-014 1.19271e-014
lhumerus -20.4583 6.72725 85.64
lradius 32.1989
lwrist -7.82218
lhand -15.7021 26.0535
lfingers 7.12502
lthumb 10.4875 55.7719
rfemur -29.2077 -0.567836 17.6084
rtibia 20.4034
rfoot -4.434 -7.1651
rtoes -4.14342
lfemur 10.4182 0.421471 -30.0153
ltibia 17.7848
lfoot -14.5708 -8.13469
ltoes -4.38179
66
root 12.3273 17.2547 -16.6911 1.97891 4.40546 5.69534
lowerback 5.78002 -2.16956 -7.53534
upperback -0.0330217 -3.35576 1.33194
thorax -2.76668 -1.56098 5.88126
lowerneck -16.8521 -3.73609 -10.097
upperneck 24.2242 -3.88781 5.55784
head 10.9273 -2.03929 3.15363
rclavicle -2.19657e-014 1.03368e-014
rhumerus -37.4204 -21.0073 -73.9353
rradius 22.8722
rwrist 15.8167
rhand -13.69 11.9356
rfingers 7.12502
rthumb 12.428 -17.675
lclavicle -2.19657e-014 1.03368e-014
lhumerus -20.7682 6.83244 85.5637
lradius 32.1001
lwrist -7.80206
lhand -16.2787 24.7171
lfingers 7.12502
lthumb 9.93124 54.4629
rfemur -28.9478 -0.84936 17.6965
rtibia 21.4511
rfoot -4.60848 -6.68727
rtoes -3.90071
lfemur 10.9434 0.0637934 -30.1569
ltibia 17.9929
lfoot -13.9569 -8.24509
ltoes -6.52926
67
root 12.319 17.2702 -16.5128 1.99234 4.67645 5.56645
lowerback 5.76797 -2.21269 -7.37582
upperback -0.138572 -3.40519 1.33248
thorax -2.87145 -1.58008 5.79777
lowerneck -16.6454 -3.77032 -9.91897
upperneck 24.1322 -3.9571 5.37328
head 10.8513 -2.07814 3.04531
rclavicle -4.91992e-015 2.38542e-015
rhumerus -37.7406 -21.2571 -73.7994
rradius 22.9424
rwrist 15.9373
rhand -13.5095 11.8652
rfingers 7.12502
rthumb 12.6021 -17.7347
lclavicle -4.91992e-015 2.38542e-015
lhumerus -21.1205 6.76838 85.5133
lradius 31.986
lwrist -7.54684
lhand -15.7567 27.4311
lfingers 7.12502
lthumb 10.4349 57.1522
rfemur -28.6434 -0.839224 17.9765
rtibia 22.1149
rfoot -3.86141 -6.23738
rtoes -2.58361
lfemur 11.3065 -0.35226 -29.9233
ltibia 18.2753
lfoot -13.1064 -8.45758
ltoes -6.31763
68
root 12.305 17.2982 -16.3337 2.03164 5.16786 5.4549
lowerback 5.71844 -2.39231 -7.33209
upperback -0.267234 -3.63935 1.42636
thorax -2.93877 -1.69031 5.88807
lowerneck -16.4481 -3.73322 -9.80421
upperneck 24.1962 -3.8961 5.13517
head 10.8243 -2.07208 2.95006
rclavicle 6.41081e-015 2.38542e-014
rhumerus -37.8512 -21.0061 -73.821
rradius 22.9963
rwrist 15.8304
rhand -13.4101 11.7463
rfingers 7.12502
rthumb 12.6978 -17.8477
lclavicle 6.41081e-015 2.38542e-014
lhumerus -21.5563 6.9752 85.5036
lradius 31.8023
lwrist -7.33792
lhand -15.297 28.1974
lfingers 7.12502
lthumb 10.8783 57.8956
rfemur -28.3488 -0.609481 18.0397
rtibia 22.4883
rfoot -2.38553 -6.00148
rtoes 1.20983
lfemur 11.5801 -0.998271 -29.6859
ltibia 18.6991
lfoot -12.1919 -8.5852
ltoes -7.393
69
root 12.294 17.3277 -16.1554 2.00363 5.566 5.11802
lowerback 5.56218 -2.60223 -6.99142
upperback -0.273846 -3.88051 1.57491
thorax -2.83205 -1.81968 5.85696
lowerneck -16.7678 -3.64188 -9.80535
upperneck 24.5439 -3.71108 5.02246
head 10.9981 -2.00273 2.93933
rclavicle 3.22528e-014 -4.77083e-015
rhumerus -37.6927 -21.0544 -73.785
rradius 22.8186
rwrist 16.161
rhand -13.6469 11.7474
rfingers 7.12502
rthumb 12.4696 -17.8606
lclavicle 3.22528e-014 -4.77083e-015
lhumerus -21.8031 7.52335 85.4393
lradius 31.4483
lwrist -7.7337
lhand -16.274 22.5669
lfingers 7.12502
lthumb 9.93577 52.3124
rfemur -27.98 -0.253257 18.2625
rtibia 22.5906
rfoot -0.908227 -5.97155
rtoes 5.33956
lfemur 11.7121 -1.72783 -29.2845
ltibia 19.4027
lfoot -11.0431 -8.71946
ltoes -9.68017
